<svg width="227" height="80" viewBox="0 0 227 80" fill="none" xmlns="http://www.w3.org/2000/svg">
<g clip-path="url(#clip0_14_98)">
<path d="M23.6487 64.3935C29.2063 64.3935 34.4507 62.7498 38.2863 59.8536C40.3997 58.2097 42.0435 56.2529 43.2176 53.9829C44.3917 51.5563 45.0179 48.895 45.0179 45.9988C45.0179 40.6761 43.2176 36.5275 39.3821 33.4747C36.2511 30.8133 32.0242 29.1696 27.5625 27.4475C27.0929 27.2127 26.5449 27.0561 26.0752 26.8213C22.866 25.6472 19.8915 24.473 18.0129 23.2206C16.7605 22.2813 15.8995 21.2638 15.8995 19.4634C15.9777 15.4713 19.8133 14.0624 23.1008 14.0624C26.6232 14.0624 30.8501 15.8627 34.7639 19.072L36.9556 20.8724L44.47 11.0879L42.3566 9.44411C36.5642 4.74759 29.9108 2.32104 23.1008 2.32104C17.8564 2.32104 12.925 4.04311 9.246 7.25241C5.48879 10.54 3.37536 14.9234 3.37536 19.7765C3.37536 22.5161 4.00158 25.0992 5.09743 27.2909C6.19329 29.3261 7.60224 31.0482 9.63744 32.6137C13.0815 35.3533 17.3084 37.0754 21.7701 38.7192C22.005 38.7974 22.318 38.8757 22.6312 39.0322C25.8404 40.2064 28.5801 41.3023 30.3021 42.5546C31.8676 43.6505 32.4156 44.9029 32.4156 46.7815C32.4156 48.5036 31.7894 49.8342 30.3804 50.8519C28.8932 51.9477 26.4666 52.5739 23.727 52.5739C21.3787 52.5739 18.9522 52.026 16.6822 50.9301C14.3339 49.8343 12.1422 48.1122 10.4984 46.077L8.46324 43.494L0.322632 53.1218L1.96641 54.9222C7.68055 61.0277 15.4298 64.3935 23.6487 64.3935Z" fill="#A297E5"/>
<path d="M91.9113 33.4747C90.815 30.8916 89.1712 28.465 87.1362 26.4299C85.1012 24.3948 82.7531 22.7509 80.0918 21.6551C77.2737 20.481 74.3774 19.8547 71.403 19.8547C68.3505 19.8547 65.4542 20.481 62.7144 21.6551C60.0531 22.7509 57.6265 24.3948 55.5913 26.4299C53.5562 28.465 51.9124 30.8133 50.8166 33.4747C49.6424 36.2926 49.0945 39.1888 49.0945 42.1633V75.5084L60.8358 79.4221V61.8105C61.3838 62.2018 62.0099 62.4366 62.7144 62.7498C65.4542 63.9239 68.3505 64.4718 71.403 64.4718C74.3774 64.4718 77.2737 63.9239 80.0918 62.7498C82.6743 61.6539 85.1012 60.0101 87.1362 57.9749C89.1712 55.9398 90.815 53.5132 91.9113 50.8519C93.085 48.1122 93.7113 45.216 93.7113 42.1633C93.7113 39.1888 93.085 36.2926 91.9113 33.4747ZM71.403 52.7305C65.5323 52.7305 60.8358 48.0339 60.8358 42.1633C60.8358 36.3709 65.5323 31.5961 71.403 31.5961C77.1956 31.5961 81.9699 36.3709 81.9699 42.1633C81.9699 48.0339 77.1956 52.7305 71.403 52.7305Z" fill="#A29FE5"/>
<path d="M97.8038 4.74752V63.9238H109.623V0.83374L97.8038 4.74752Z" fill="#A3A6E5"/>
<path d="M116.914 22.6728V63.924H128.733V18.759L116.914 22.6728Z" fill="#A3AEE5"/>
<path d="M148.157 40.5196V31.2831H160.603V20.3246H148.157V6.31323L136.416 10.227V40.5196C136.416 43.8072 137.042 47.0165 138.294 49.991C139.546 52.8872 141.269 55.4702 143.539 57.6619C145.73 59.8537 148.313 61.654 151.209 62.8282C154.184 64.0806 157.315 64.7067 160.603 64.7067V52.9654C153.715 52.9654 148.157 47.4079 148.157 40.5196Z" fill="#A4B5E5"/>
<path d="M210.099 59.0708L217.535 66.507L226.223 57.8183L218.709 50.3039C219.726 48.8166 220.665 47.1729 221.371 45.4508C223.014 41.6153 223.797 37.545 223.797 33.3964C223.797 29.2477 223.014 25.1775 221.371 21.3419C219.805 17.663 217.613 14.3754 214.717 11.5575C211.899 8.6613 208.611 6.46959 204.932 4.90408C201.097 3.26029 197.027 2.47754 192.878 2.47754C188.729 2.47754 184.659 3.26029 180.823 4.90408C177.145 6.46959 173.857 8.6613 171.039 11.5575C168.143 14.3754 165.951 17.663 164.386 21.3419C162.742 25.1775 161.959 29.2477 161.959 33.3964C161.959 37.545 162.82 41.6153 164.386 45.4508C165.951 49.1297 168.221 52.4173 171.039 55.2352C173.857 58.1314 177.145 60.3231 180.823 61.8886C184.659 63.5325 188.729 64.3152 192.878 64.3152C197.027 64.3152 201.097 63.4542 204.932 61.8886C206.733 61.1059 208.455 60.1666 210.099 59.0708ZM192.878 52.026C187.947 52.026 183.25 50.0691 179.728 46.5467C176.205 43.0243 174.248 38.3277 174.248 33.3964C174.248 28.3867 176.205 23.7685 179.728 20.2461C183.25 16.7237 187.868 14.7668 192.878 14.7668C197.888 14.7668 202.506 16.7237 206.028 20.2461C209.55 23.7685 211.507 28.3867 211.507 33.3964C211.507 38.3277 209.55 43.0243 206.028 46.5467C202.506 50.0691 197.888 52.026 192.878 52.026Z" fill="#A4BDE5"/>
</g>
<defs>
<clipPath id="clip0_14_98">
<rect width="226.546" height="79.4213" fill="white" transform="translate(0 0.41748)"/>
</clipPath>
</defs>
</svg>
