<svg width="109" height="38" viewBox="0 0 109 38" fill="none" xmlns="http://www.w3.org/2000/svg">
<g clip-path="url(#clip0_24_164)">
<path d="M11.3784 30.6101C14.0523 30.6101 16.5756 29.8236 18.421 28.4379C19.4379 27.6514 20.2288 26.7151 20.7937 25.629C21.3586 24.468 21.6599 23.1946 21.6599 21.8089C21.6599 19.2622 20.7937 17.2773 18.9483 15.8166C17.4418 14.5432 15.4081 13.7568 13.2614 12.9328C13.0355 12.8205 12.7718 12.7456 12.5458 12.6332C11.0017 12.0714 9.57062 11.5097 8.66673 10.9104C8.06416 10.461 7.6499 9.97415 7.6499 9.11273C7.68755 7.2027 9.53297 6.52858 11.1147 6.52858C12.8095 6.52858 14.8432 7.38996 16.7263 8.92547L17.7808 9.78689L21.3963 5.10541L20.3794 4.31891C17.5925 2.07181 14.3913 0.910797 11.1147 0.910797C8.59143 0.910797 6.21874 1.73474 4.44865 3.27026C2.64091 4.84325 1.62406 6.94053 1.62406 9.26255C1.62406 10.5734 1.92536 11.8093 2.45262 12.8579C2.97988 13.8317 3.65777 14.6556 4.63699 15.4047C6.29407 16.7155 8.3278 17.5394 10.4745 18.3259C10.5875 18.3633 10.7381 18.4008 10.8888 18.4757C12.4329 19.0375 13.751 19.5618 14.5796 20.161C15.3328 20.6854 15.5964 21.2846 15.5964 22.1834C15.5964 23.0074 15.2952 23.644 14.6172 24.1309C13.9017 24.6552 12.7342 24.9548 11.416 24.9548C10.2862 24.9548 9.11867 24.6927 8.02648 24.1684C6.89664 23.6441 5.84213 22.8201 5.05125 21.8463L4.07204 20.6104L0.155273 25.217L0.946158 26.0784C3.69545 28.9997 7.42391 30.6101 11.3784 30.6101Z" fill="#BF3578"/>
<path d="M44.2221 15.8166C43.6946 14.5807 42.9038 13.4197 41.9246 12.446C40.9455 11.4722 39.8157 10.6857 38.5353 10.1614C37.1794 9.59966 35.7859 9.30002 34.3548 9.30002C32.8861 9.30002 31.4926 9.59966 30.1743 10.1614C28.8939 10.6857 27.7263 11.4722 26.7472 12.446C25.768 13.4197 24.9771 14.5433 24.4498 15.8166C23.8849 17.1649 23.6213 18.5506 23.6213 19.9738V35.9281L29.2705 37.8007V29.3742C29.5341 29.5615 29.8354 29.6738 30.1743 29.8236C31.4926 30.3854 32.8861 30.6475 34.3548 30.6475C35.7859 30.6475 37.1794 30.3854 38.5353 29.8236C39.7778 29.2993 40.9455 28.5128 41.9246 27.5391C42.9038 26.5653 43.6946 25.4043 44.2221 24.131C44.7868 22.8201 45.0881 21.4344 45.0881 19.9738C45.0881 18.5506 44.7868 17.1649 44.2221 15.8166ZM34.3548 25.0298C31.5302 25.0298 29.2705 22.7827 29.2705 19.9738C29.2705 17.2024 31.5302 14.9178 34.3548 14.9178C37.1418 14.9178 39.4389 17.2024 39.4389 19.9738C39.4389 22.7827 37.1418 25.0298 34.3548 25.0298Z" fill="#C13874"/>
<path d="M47.0573 2.07181V30.3854H52.7441V0.199219L47.0573 2.07181Z" fill="#C23B6F"/>
<path d="M56.2518 10.6483V30.3854H61.9386V8.7757L56.2518 10.6483Z" fill="#C43E69"/>
<path d="M71.2842 19.1873V14.768H77.2723V9.52475H71.2842V2.82086L65.6349 4.69345V19.1873C65.6349 20.7603 65.9363 22.2958 66.5389 23.719C67.1412 25.1047 67.97 26.3406 69.0622 27.3892C70.1165 28.4379 71.3593 29.2993 72.7528 29.8611C74.1839 30.4603 75.6905 30.7599 77.2723 30.7599V25.1421C73.9581 25.1421 71.2842 22.4831 71.2842 19.1873Z" fill="#C74061"/>
<path d="M101.087 28.0634L104.664 31.6213L108.845 27.4641L105.229 23.8688C105.719 23.1572 106.171 22.3707 106.51 21.5468C107.301 19.7116 107.677 17.7641 107.677 15.7792C107.677 13.7942 107.301 11.8468 106.51 10.0116C105.757 8.25136 104.702 6.67838 103.309 5.33013C101.953 3.94441 100.371 2.89576 98.6009 2.14672C96.7554 1.36024 94.7971 0.985718 92.801 0.985718C90.8049 0.985718 88.8466 1.36024 87.0011 2.14672C85.2311 2.89576 83.6494 3.94441 82.2934 5.33013C80.8999 6.67838 79.8456 8.25136 79.0924 10.0116C78.3015 11.8468 77.9247 13.7942 77.9247 15.7792C77.9247 17.7641 78.3391 19.7116 79.0924 21.5468C79.8456 23.307 80.9378 24.88 82.2934 26.2282C83.6494 27.614 85.2311 28.6626 87.0011 29.4116C88.8466 30.1981 90.8049 30.5727 92.801 30.5727C94.7971 30.5727 96.7554 30.1607 98.6009 29.4116C99.4672 29.0371 100.296 28.5877 101.087 28.0634ZM92.801 24.6927C90.4284 24.6927 88.1688 23.7564 86.474 22.0711C84.7792 20.3858 83.8376 18.1387 83.8376 15.7792C83.8376 13.3823 84.7792 11.1726 86.474 9.48727C88.1688 7.80194 90.3908 6.86564 92.801 6.86564C95.2115 6.86564 97.4335 7.80194 99.128 9.48727C100.823 11.1726 101.764 13.3823 101.764 15.7792C101.764 18.1387 100.823 20.3858 99.128 22.0711C97.4335 23.7564 95.2115 24.6927 92.801 24.6927Z" fill="#CA4356"/>
</g>
<defs>
<clipPath id="clip0_24_164">
<rect width="109" height="38" fill="white"/>
</clipPath>
</defs>
</svg>
